<?xml version="1.0" encoding="utf-8"?>
<!-- Generator: Adobe Illustrator 22.1.0, SVG Export Plug-In . SVG Version: 6.00 Build 0)  -->
<svg version="1.1" xmlns="http://www.w3.org/2000/svg" xmlns:xlink="http://www.w3.org/1999/xlink" x="0px" y="0px"
	 viewBox="0 0 93.9 34" style="enable-background:new 0 0 93.9 34;" xml:space="preserve">
<style type="text/css">
	.st0{fill:#777878;}
	.st1{fill:#FFFFFF;}
	.st2{fill:url(#XMLID_2_);}
	.st3{fill:none;}
	.st4{fill:#FFA500;}
</style>
<g id="Icon">
	<g id="XMLID_24_">
		<path id="XMLID_43_" class="st0" d="M93.8,9.1c0-0.3,0-0.7,0-1c0-0.7-0.1-1.4-0.2-2.2c-0.1-0.7-0.3-1.4-0.7-2
			c-0.3-0.6-0.8-1.2-1.3-1.7s-1.1-0.9-1.7-1.3c-0.7-0.3-1.3-0.5-2.1-0.7C87.1,0.1,86.4,0,85.7,0c-0.3,0-0.7,0-1,0
			c-0.4,0-0.8,0-1.2,0H10.3C9.9,0,9.5,0,9.1,0c-0.3,0-0.7,0-1,0C7.4,0,6.6,0.1,5.9,0.2s-1.4,0.3-2,0.7C3.2,1.2,2.7,1.6,2.1,2.1
			C1.6,2.7,1.2,3.2,0.9,3.9s-0.5,1.3-0.7,2C0.1,6.6,0,7.4,0,8.1c0,0.3,0,0.7,0,1c0,0.4,0,0.8,0,1.2v13.5c0,0.4,0,0.8,0,1.2
			c0,0.3,0,0.7,0,1c0,0.7,0.1,1.4,0.2,2.2c0.1,0.7,0.3,1.4,0.7,2c0.3,0.6,0.8,1.2,1.3,1.7s1.1,0.9,1.7,1.3c0.7,0.3,1.3,0.5,2,0.7
			c0.7,0,1.5,0.1,2.2,0.1c0.3,0,0.7,0,1,0c0.4,0,0.8,0,1.2,0h73.3c0.4,0,0.8,0,1.2,0c0.3,0,0.7,0,1,0c0.7,0,1.4-0.1,2.1-0.2
			c0.7-0.1,1.4-0.3,2.1-0.7c0.6-0.3,1.2-0.8,1.7-1.3s0.9-1.1,1.3-1.7c0.3-0.7,0.5-1.3,0.7-2c0.1-0.7,0.2-1.4,0.2-2.2
			c0-0.3,0-0.7,0-1c0-0.4,0-0.8,0-1.2V10.3C93.8,9.9,93.8,9.5,93.8,9.1z"/>
		<path id="XMLID_42_" class="st1" d="M93.1,23.8c0,0.4,0,0.8,0,1.2c0,0.3,0,0.7,0,1c0,0.6-0.1,1.4-0.2,2.1
			c-0.1,0.7-0.3,1.3-0.6,1.9s-0.7,1.1-1.2,1.6c-0.5,0.5-1,0.8-1.6,1.1c-0.6,0.3-1.2,0.5-1.9,0.6c-0.7,0.1-1.4,0.2-2,0.2
			c-0.3,0-0.7,0-1,0c-0.4,0-0.8,0-1.2,0H10.3c-0.4,0-0.8,0-1.2,0c-0.3,0-0.6,0-1,0c-0.6,0-1.3-0.1-2.1-0.2c-0.7-0.1-1.3-0.3-1.9-0.6
			S3,32,2.5,31.6c-0.5-0.5-0.8-1-1.1-1.6c-0.2-0.7-0.4-1.4-0.5-2c-0.1-0.7-0.2-1.5-0.2-2.1c0-0.2,0-0.5,0-0.7v-0.3v-1.2V10.3V9.1
			V8.8c0-0.2,0-0.5,0-0.7c0-0.6,0-1.3,0.2-2.1C1,5.4,1.2,4.8,1.5,4.2s0.7-1.1,1.1-1.6c0.5-0.5,1-0.8,1.6-1.1S5.4,1,6,0.9
			c0.7-0.1,1.5-0.2,2.1-0.2h1c0.4,0,0.8,0,1.2,0h73.3c0.4,0,0.8,0,1.2,0h0.1h0.9c0.6,0,1.3,0.1,2.1,0.2c0.7,0.1,1.3,0.3,1.9,0.6
			s1.1,0.7,1.6,1.1c0.5,0.5,0.8,1,1.1,1.6s0.5,1.2,0.6,1.9s0.2,1.4,0.2,2c0,0.3,0,0.7,0,1c0,0.4,0,0.8,0,1.2L93.1,23.8L93.1,23.8z"
			/>
		<g id="XMLID_30_">
			<g id="XMLID_25_">
				
					<linearGradient id="XMLID_2_" gradientUnits="userSpaceOnUse" x1="17.55" y1="737.8" x2="17.55" y2="760.2" gradientTransform="matrix(1 0 0 1 0 -732)">
					<stop  offset="0" style="stop-color:#F452FF"/>
					<stop  offset="1" style="stop-color:#832BC1"/>
				</linearGradient>
				<path id="XMLID_40_" class="st2" d="M28.2,25.2c-0.2,0.6-0.7,1.3-1.4,1.9c-0.4,0.3-0.9,0.6-1.6,0.8c-0.7,0.2-1.6,0.3-2.7,0.3
					h-10c-1.1,0-2-0.1-2.7-0.3c-0.7-0.2-1.2-0.5-1.6-0.8c-0.7-0.5-1.2-1.3-1.4-1.9c-0.4-1.1-0.4-2.4-0.4-3.2l0,0V12l0,0
					c0-0.8,0-2.1,0.4-3.2C7,8.2,7.5,7.5,8.2,6.9c0.4-0.3,0.9-0.6,1.6-0.8c0.7-0.2,1.6-0.3,2.7-0.3l0,0h10.1l0,0c1.1,0,2,0.1,2.7,0.3
					c0.7,0.2,1.2,0.5,1.6,0.8c0.7,0.5,1.2,1.3,1.4,1.9c0.4,1.1,0.4,2.4,0.4,3.2v10C28.7,22.8,28.7,24.1,28.2,25.2z"/>
				<path id="XMLID_38_" class="st3" d="M28.2,25.2c-0.2,0.6-0.7,1.3-1.4,1.9c-0.4,0.3-0.9,0.6-1.6,0.8c-0.7,0.2-1.6,0.3-2.7,0.3
					h-10c-1.1,0-2-0.1-2.7-0.3c-0.7-0.2-1.2-0.5-1.6-0.8c-0.7-0.5-1.2-1.3-1.4-1.9c-0.4-1.1-0.4-2.4-0.4-3.2l0,0V12l0,0
					c0-0.8,0-2.1,0.4-3.2C7,8.2,7.5,7.5,8.2,6.9c0.4-0.3,0.9-0.6,1.6-0.8c0.7-0.2,1.6-0.3,2.7-0.3l0,0h10.1l0,0c1.1,0,2,0.1,2.7,0.3
					c0.7,0.2,1.2,0.5,1.6,0.8c0.7,0.5,1.2,1.3,1.4,1.9c0.4,1.1,0.4,2.4,0.4,3.2v10C28.7,22.8,28.7,24.1,28.2,25.2z"/>
				<g id="XMLID_26_">
					<g>
						<path class="st1" d="M19.1,18.7c-0.3-0.4-0.9-0.6-1.6-0.6s-1.3,0.2-1.6,0.6c-0.2,0.2-0.3,0.4-0.3,0.6c-0.1,0.5,0,1,0,1.7
							c0.1,0.7,0.2,1.6,0.3,2.5c0.1,0.7,0.2,1,0.3,1.3c0.1,0.4,0.6,0.8,1.3,0.8s1.2-0.4,1.3-0.8c0.1-0.3,0.2-0.6,0.3-1.3
							c0.1-0.9,0.3-1.8,0.3-2.5c0.1-0.7,0.1-1.2,0-1.7C19.4,19.1,19.3,18.9,19.1,18.7z M15.7,15.5c0,1,0.8,1.8,1.8,1.8
							s1.8-0.8,1.8-1.8s-0.8-1.8-1.8-1.8S15.7,14.5,15.7,15.5z M17.5,8.3c-4.3,0-7.8,3.5-7.9,7.8c0,3.5,2.2,6.4,5.3,7.5
							c0.1,0,0.2,0,0.1-0.1c0-0.3-0.1-0.5-0.1-0.8c0-0.1-0.1-0.2-0.2-0.2c-2.4-1.1-4.2-3.5-4.1-6.4c0-3.7,3.1-6.8,6.8-6.8
							c3.8,0,6.9,3.1,6.9,6.9c0,2.8-1.7,5.2-4.1,6.3c-0.1,0-0.1,0.1-0.2,0.2c0,0.3-0.1,0.5-0.1,0.8c0,0.1,0.1,0.1,0.1,0.1
							c3.1-1.1,5.3-4,5.3-7.4C25.4,11.8,21.8,8.3,17.5,8.3z M17.3,11.9c2.4-0.1,4.4,1.9,4.4,4.3c0,1.2-0.5,2.3-1.3,3.1
							c-0.1,0.1-0.1,0.2-0.1,0.3c0,0.3,0,0.6,0,0.9c0,0.1,0.1,0.1,0.2,0.1c1.4-1,2.3-2.5,2.3-4.4c0-3-2.5-5.4-5.5-5.3
							c-2.8,0.1-5,2.4-5.1,5.2c0,1.8,0.9,3.5,2.3,4.4c0.1,0,0.2,0,0.2-0.1c0-0.3,0-0.6,0-0.9c0-0.1,0-0.2-0.1-0.3
							c-0.9-0.8-1.4-2-1.3-3.2C13.3,13.8,15.1,12,17.3,11.9z"/>
					</g>
				</g>
			</g>
		</g>
	</g>
	<path id="XMLID_22_" d="M93.1,23.8c0,0.4,0,0.8,0,1.2c0,0.3,0,0.7,0,1c0,0.6-0.1,1.4-0.2,2.1c-0.1,0.7-0.3,1.3-0.6,1.9
		s-0.7,1.1-1.2,1.6c-0.5,0.5-1,0.8-1.6,1.1c-0.6,0.3-1.2,0.5-1.9,0.6c-0.7,0.1-1.4,0.2-2,0.2c-0.3,0-0.7,0-1,0c-0.4,0-0.8,0-1.2,0
		H10.3c-0.4,0-0.8,0-1.2,0c-0.3,0-0.6,0-1,0c-0.6,0-1.3-0.1-2.1-0.2c-0.7-0.1-1.3-0.3-1.9-0.6S3,32,2.5,31.6c-0.5-0.5-0.8-1-1.1-1.6
		c-0.2-0.7-0.4-1.4-0.5-2c-0.1-0.7-0.2-1.5-0.2-2.1c0-0.2,0-0.5,0-0.7v-0.3v-1.2V10.3V9.1V8.8c0-0.2,0-0.5,0-0.7
		c0-0.6,0-1.3,0.2-2.1C1,5.4,1.2,4.8,1.5,4.2s0.7-1.1,1.1-1.6c0.5-0.5,1-0.8,1.6-1.1S5.4,1,6,0.9c0.7-0.1,1.5-0.2,2.1-0.2h1
		c0.4,0,0.8,0,1.2,0h73.3c0.4,0,0.8,0,1.2,0h0.1h0.9c0.6,0,1.3,0.1,2.1,0.2c0.7,0.1,1.3,0.3,1.9,0.6s1.1,0.7,1.6,1.1
		c0.5,0.5,0.8,1,1.1,1.6s0.5,1.2,0.6,1.9s0.2,1.4,0.2,2c0,0.3,0,0.7,0,1c0,0.4,0,0.8,0,1.2L93.1,23.8L93.1,23.8z"/>
	<g id="Layer_4">
	</g>
</g>
<g id="Layer_5">
	<g>
		<path class="st0" d="M33.4,13V6.6h2.2c0.5,0,0.9,0,1.1,0.1c0.4,0.1,0.7,0.2,0.9,0.5c0.3,0.3,0.6,0.7,0.8,1.1
			c0.2,0.4,0.3,1,0.3,1.5c0,0.5-0.1,0.9-0.2,1.3c-0.1,0.4-0.3,0.7-0.4,0.9c-0.2,0.2-0.4,0.4-0.6,0.6c-0.2,0.1-0.5,0.3-0.8,0.3
			c-0.3,0.1-0.6,0.1-1,0.1H33.4z M34.3,12.2h1.4c0.4,0,0.8,0,1-0.1c0.2-0.1,0.4-0.2,0.6-0.3c0.2-0.2,0.4-0.5,0.5-0.8
			c0.1-0.3,0.2-0.8,0.2-1.2c0-0.7-0.1-1.2-0.3-1.6c-0.2-0.4-0.5-0.6-0.8-0.7c-0.2-0.1-0.6-0.1-1.1-0.1h-1.4V12.2z"/>
		<path class="st0" d="M39.5,10.7c0-0.9,0.2-1.5,0.7-1.9c0.4-0.3,0.9-0.5,1.5-0.5c0.6,0,1.2,0.2,1.6,0.6s0.6,1,0.6,1.7
			c0,0.6-0.1,1.1-0.3,1.4c-0.2,0.3-0.4,0.6-0.8,0.8c-0.3,0.2-0.7,0.3-1.1,0.3c-0.7,0-1.2-0.2-1.6-0.6C39.8,12.1,39.5,11.5,39.5,10.7
			z M40.4,10.7c0,0.6,0.1,1,0.4,1.3c0.3,0.3,0.6,0.4,1,0.4c0.4,0,0.7-0.1,1-0.4s0.4-0.8,0.4-1.4c0-0.6-0.1-1-0.4-1.3
			c-0.3-0.3-0.6-0.4-1-0.4c-0.4,0-0.7,0.1-1,0.4S40.4,10.1,40.4,10.7z"/>
		<path class="st0" d="M45.7,13l-1.4-4.7h0.8l0.7,2.7l0.3,1c0,0,0.1-0.4,0.2-1l0.7-2.7h0.8l0.7,2.7l0.2,0.9l0.3-0.9l0.8-2.7h0.8
			L49.2,13h-0.8l-0.7-2.8l-0.2-0.8L46.5,13H45.7z"/>
		<path class="st0" d="M51.3,13V8.3h0.7V9c0.3-0.5,0.8-0.8,1.5-0.8c0.3,0,0.5,0.1,0.8,0.2c0.2,0.1,0.4,0.2,0.5,0.4s0.2,0.4,0.2,0.6
			c0,0.1,0,0.4,0,0.8V13h-0.8v-2.8c0-0.3,0-0.6-0.1-0.7c-0.1-0.2-0.2-0.3-0.3-0.4c-0.2-0.1-0.3-0.1-0.6-0.1c-0.3,0-0.6,0.1-0.9,0.3
			c-0.2,0.2-0.4,0.6-0.4,1.2V13H51.3z"/>
		<path class="st0" d="M56.3,13V6.6h0.8V13H56.3z"/>
		<path class="st0" d="M58.1,10.7c0-0.9,0.2-1.5,0.7-1.9c0.4-0.3,0.9-0.5,1.5-0.5c0.6,0,1.2,0.2,1.6,0.6s0.6,1,0.6,1.7
			c0,0.6-0.1,1.1-0.3,1.4c-0.2,0.3-0.4,0.6-0.8,0.8c-0.3,0.2-0.7,0.3-1.1,0.3c-0.7,0-1.2-0.2-1.6-0.6C58.3,12.1,58.1,11.5,58.1,10.7
			z M58.9,10.7c0,0.6,0.1,1,0.4,1.3c0.3,0.3,0.6,0.4,1,0.4c0.4,0,0.7-0.1,1-0.4s0.4-0.8,0.4-1.4c0-0.6-0.1-1-0.4-1.3
			c-0.3-0.3-0.6-0.4-1-0.4c-0.4,0-0.7,0.1-1,0.4S58.9,10.1,58.9,10.7z"/>
		<path class="st0" d="M66.4,12.4c-0.3,0.3-0.6,0.4-0.8,0.5c-0.3,0.1-0.6,0.2-0.9,0.2c-0.5,0-0.9-0.1-1.2-0.4
			c-0.3-0.3-0.4-0.6-0.4-1c0-0.2,0.1-0.4,0.2-0.6c0.1-0.2,0.2-0.3,0.4-0.5c0.2-0.1,0.4-0.2,0.6-0.3c0.2,0,0.4-0.1,0.7-0.1
			c0.6-0.1,1.1-0.2,1.4-0.3c0-0.1,0-0.2,0-0.2c0-0.3-0.1-0.5-0.2-0.7c-0.2-0.2-0.5-0.3-0.9-0.3c-0.4,0-0.6,0.1-0.8,0.2
			c-0.2,0.1-0.3,0.4-0.4,0.7l-0.8-0.1c0.1-0.3,0.2-0.6,0.3-0.8c0.2-0.2,0.4-0.4,0.7-0.5c0.3-0.1,0.7-0.2,1.1-0.2c0.4,0,0.7,0,1,0.1
			s0.4,0.2,0.5,0.4C67,8.9,67.1,9,67.1,9.3c0,0.1,0,0.4,0,0.7V11c0,0.7,0,1.2,0,1.4c0,0.2,0.1,0.4,0.2,0.6h-0.8
			C66.5,12.8,66.4,12.6,66.4,12.4z M66.3,10.7C66,10.8,65.6,10.9,65,11c-0.3,0-0.6,0.1-0.7,0.2s-0.2,0.1-0.3,0.3
			c-0.1,0.1-0.1,0.2-0.1,0.4c0,0.2,0.1,0.4,0.2,0.5c0.2,0.1,0.4,0.2,0.7,0.2c0.3,0,0.6-0.1,0.8-0.2c0.2-0.1,0.4-0.3,0.5-0.5
			c0.1-0.2,0.1-0.4,0.1-0.8V10.7z"/>
		<path class="st0" d="M71.4,13v-0.6c-0.3,0.5-0.7,0.7-1.3,0.7c-0.4,0-0.7-0.1-1-0.3c-0.3-0.2-0.6-0.5-0.7-0.9
			c-0.2-0.4-0.3-0.8-0.3-1.3c0-0.5,0.1-0.9,0.2-1.3C68.5,9,68.7,8.7,69,8.5s0.7-0.3,1-0.3c0.3,0,0.5,0.1,0.8,0.2
			c0.2,0.1,0.4,0.3,0.5,0.5V6.6h0.8V13H71.4z M68.9,10.7c0,0.6,0.1,1,0.4,1.3s0.5,0.4,0.9,0.4c0.3,0,0.6-0.1,0.9-0.4
			c0.2-0.3,0.4-0.7,0.4-1.3c0-0.6-0.1-1.1-0.4-1.4s-0.5-0.4-0.9-0.4c-0.4,0-0.6,0.1-0.9,0.4C69,9.6,68.9,10.1,68.9,10.7z"/>
		<path class="st0" d="M77.2,13l-1.8-4.7h0.8l1,2.8c0.1,0.3,0.2,0.6,0.3,0.9c0.1-0.2,0.2-0.5,0.3-0.9l1-2.8h0.8L77.9,13H77.2z"/>
		<path class="st0" d="M80.4,7.5V6.6h0.8v0.9H80.4z M80.4,13V8.3h0.8V13H80.4z"/>
		<path class="st0" d="M85.4,12.4c-0.3,0.3-0.6,0.4-0.8,0.5c-0.3,0.1-0.6,0.2-0.9,0.2c-0.5,0-0.9-0.1-1.2-0.4
			c-0.3-0.3-0.4-0.6-0.4-1c0-0.2,0.1-0.4,0.2-0.6c0.1-0.2,0.2-0.3,0.4-0.5c0.2-0.1,0.4-0.2,0.6-0.3c0.2,0,0.4-0.1,0.7-0.1
			c0.6-0.1,1.1-0.2,1.4-0.3c0-0.1,0-0.2,0-0.2c0-0.3-0.1-0.5-0.2-0.7c-0.2-0.2-0.5-0.3-0.9-0.3c-0.4,0-0.6,0.1-0.8,0.2
			c-0.2,0.1-0.3,0.4-0.4,0.7l-0.8-0.1c0.1-0.3,0.2-0.6,0.3-0.8c0.2-0.2,0.4-0.4,0.7-0.5c0.3-0.1,0.7-0.2,1.1-0.2c0.4,0,0.7,0,1,0.1
			s0.4,0.2,0.5,0.4C86,8.9,86.1,9,86.1,9.3c0,0.1,0,0.4,0,0.7V11c0,0.7,0,1.2,0,1.4c0,0.2,0.1,0.4,0.2,0.6h-0.8
			C85.5,12.8,85.4,12.6,85.4,12.4z M85.3,10.7c-0.3,0.1-0.7,0.2-1.3,0.3c-0.3,0-0.6,0.1-0.7,0.2s-0.2,0.1-0.3,0.3
			c-0.1,0.1-0.1,0.2-0.1,0.4c0,0.2,0.1,0.4,0.2,0.5c0.2,0.1,0.4,0.2,0.7,0.2c0.3,0,0.6-0.1,0.8-0.2c0.2-0.1,0.4-0.3,0.5-0.5
			c0.1-0.2,0.1-0.4,0.1-0.8V10.7z"/>
	</g>
</g>
<g id="Layer_3">
	<g>
		<path class="st1" d="M33.4,17c0.7-0.1,1.6-0.2,2.5-0.2c1.4,0,2.3,0.3,2.9,0.8c0.5,0.4,0.8,1.1,0.8,1.9c0,1.3-0.8,2.2-1.9,2.6v0
			c0.8,0.3,1.2,1,1.5,2c0.3,1.4,0.6,2.4,0.8,2.8h-1.4c-0.2-0.3-0.4-1.2-0.7-2.4c-0.3-1.4-0.8-1.9-2-2h-1.2V27h-1.3V17z M34.7,21.6
			H36c1.4,0,2.3-0.8,2.3-1.9c0-1.3-0.9-1.9-2.3-1.9c-0.6,0-1.1,0.1-1.3,0.1V21.6z"/>
		<path class="st1" d="M41.3,25.4c0.6,0.4,1.4,0.7,2.3,0.7c1.3,0,2.1-0.7,2.1-1.7c0-0.9-0.5-1.5-1.9-2c-1.6-0.6-2.7-1.4-2.7-2.9
			c0-1.6,1.3-2.7,3.3-2.7c1,0,1.8,0.2,2.2,0.5l-0.4,1.1c-0.3-0.2-1-0.5-1.9-0.5c-1.4,0-1.9,0.8-1.9,1.5c0,0.9,0.6,1.4,2,1.9
			c1.7,0.7,2.6,1.5,2.6,3c0,1.6-1.2,2.9-3.5,2.9c-1,0-2-0.3-2.6-0.6L41.3,25.4z"/>
		<path class="st1" d="M48.7,25.4c0.6,0.4,1.4,0.7,2.3,0.7c1.3,0,2.1-0.7,2.1-1.7c0-0.9-0.5-1.5-1.9-2c-1.6-0.6-2.7-1.4-2.7-2.9
			c0-1.6,1.3-2.7,3.3-2.7c1,0,1.8,0.2,2.2,0.5l-0.4,1.1c-0.3-0.2-1-0.5-1.9-0.5c-1.4,0-1.9,0.8-1.9,1.5c0,0.9,0.6,1.4,2,1.9
			c1.7,0.7,2.6,1.5,2.6,3c0,1.6-1.2,2.9-3.5,2.9c-1,0-2-0.3-2.6-0.6L48.7,25.4z"/>
	</g>
</g>
<g id="Layer_2">
	<path class="st4" d="M10.5,5.9h13.9c2.3,0,4.2,1.9,4.2,4.2v13.9c0,2.3-1.9,4.2-4.2,4.2H10.5c-2.3,0-4.2-1.9-4.2-4.2V10.1
		C6.3,7.8,8.2,5.9,10.5,5.9z"/>
	<circle class="st1" cx="11.9" cy="22.6" r="2.8"/>
	<path class="st1" d="M9.1,17c4.6,0,8.3,3.7,8.3,8.3h2.8c0-6.1-5-11.1-11.1-11.1V17z"/>
	<path class="st1" d="M9.1,11.4c7.7,0,13.9,6.2,13.9,13.9h2.8c0-9.2-7.5-16.7-16.7-16.7V11.4z"/>
</g>
</svg>
